<svg width="81" height="55" viewBox="0 0 81 55" fill="none" xmlns="http://www.w3.org/2000/svg">
<path d="M26.4077 44.6807C26.4007 43.5691 26.3902 42.3102 26.4288 40.9391C26.4673 39.5539 26.5445 38.5019 26.6637 37.7234C26.8075 36.7801 27.0354 36.1033 27.2984 35.3739C28.2487 32.7509 30.2686 30.2436 32.6952 28.6656C35.1219 27.0876 38.2323 26.2636 41.0166 26.4564C43.7939 26.5792 46.7921 27.7539 49.0224 29.5984C51.2527 31.4429 52.9709 34.1641 53.6197 36.8783C53.8686 37.6849 53.9703 39.0805 54.0089 40.101C54.0405 40.9776 54.0405 41.8578 54.037 42.5627C54.037 42.8537 54.037 43.1167 54.037 43.3341L54.037 54.2294L61.387 54.2294L61.387 44.0109C61.387 43.8952 61.387 43.7655 61.387 43.6217C61.387 43.4323 61.387 43.2254 61.387 43.0045C61.387 42.2541 61.3905 41.3178 61.373 40.3955C61.3414 38.7614 61.2537 37.5411 61.117 36.8713C60.7523 34.613 59.9983 32.3617 58.9323 30.3489C57.7996 28.2098 56.2602 26.2215 54.4788 24.6014C52.6974 22.9778 50.5759 21.6312 48.3421 20.7019C46.2381 19.8253 43.9272 19.2852 41.6583 19.1309C39.3895 18.9766 37.026 19.2011 34.8238 19.7832C32.4848 20.4039 30.1985 21.4524 28.2172 22.82C26.2324 24.1876 24.437 25.948 23.0273 27.9152C21.6982 29.7667 20.6462 31.8953 19.987 34.0694C19.7731 34.7953 19.6082 35.3669 19.4715 36.2085C19.3487 36.9835 19.24 38.0601 19.1699 39.2453C19.0647 40.9776 19.0647 42.5101 19.0682 43.7409C19.0682 44.0144 19.0682 44.2704 19.0682 44.5124L19.0682 54.2294L26.4182 54.2294L26.4182 46.5252C26.4253 45.9712 26.4182 45.3505 26.4182 44.6702L26.4077 44.6807Z" fill="#F08324"/>
<path d="M40.2311 35.8509C41.2971 35.8228 42.521 36.3278 43.331 37.1378C44.1411 37.9479 44.639 39.1717 44.618 40.2553L44.618 54.2294L51.968 54.2294L51.968 43.4499C51.968 43.243 51.968 43.0045 51.968 42.7415C51.9715 41.8719 51.9715 40.7918 51.9014 39.7188C51.7997 38.2004 51.5682 36.9309 51.2667 36.2401C50.4987 34.066 48.9628 32.0461 47.0376 30.6785C45.1159 29.3074 42.7033 28.5149 40.424 28.5008C38.1376 28.4377 35.7004 29.1496 33.7332 30.4541C31.7659 31.7585 30.1599 33.7223 29.3288 35.8474C29.0658 36.5241 28.8378 37.1589 28.6976 38.0636C28.5819 38.8105 28.5117 39.8064 28.4802 41.1916C28.4486 42.4855 28.4591 43.6988 28.4696 44.7719C28.4767 45.5258 28.4837 46.2167 28.4731 46.8303L28.4731 54.2294L35.8232 54.2294L35.8232 40.2553C35.7916 39.1752 36.3001 37.9514 37.1101 37.1413C37.9202 36.3313 39.144 35.8263 40.2276 35.8544L40.2311 35.8509Z" fill="#F9B32C"/>
<path d="M17.0273 7.66757C13.4224 10.2345 10.1612 13.5062 7.58728 17.1286C5.16065 20.5512 3.22496 24.4787 1.99761 28.4833C1.64344 29.644 1.27874 30.9555 0.991191 32.6493C0.85443 33.4698 0.742214 34.3395 0.647533 35.3003C0.559866 36.2015 0.48272 37.2851 0.416093 38.5124C0.226731 41.9736 0.226731 44.6947 0.230237 47.0933C0.230237 47.6579 0.230237 48.1944 0.230237 48.7099L0.230236 54.2294L7.58027 54.2294L7.58027 43.8672C7.55923 42.0577 7.59429 39.326 7.88535 36.6364C8.18342 33.8696 8.75501 31.1694 9.36868 29.5879C10.4698 26.3898 12.139 23.2583 14.1939 20.5477C16.3645 17.6792 19.0892 15.1123 22.0664 13.117C25.0436 11.1217 28.4591 9.58573 31.9378 8.67049C35.227 7.80433 38.7583 7.45366 42.1493 7.65705C45.5402 7.85343 49.0048 8.61789 52.1714 9.86277C55.5203 11.1813 58.7289 13.11 61.4501 15.4384C64.1748 17.7669 66.5769 20.6388 68.3969 23.7423C70.1186 26.6774 71.4091 29.9807 72.128 33.3015C72.3805 34.3184 72.6189 36.0893 72.7451 37.9128C72.8784 39.8029 72.8819 41.6404 72.8749 42.5662L72.8749 54.2295L80.2249 54.2295L80.2249 42.6959C80.2355 42.0086 80.246 39.5504 80.0286 36.8783C79.8497 34.6937 79.5166 32.4564 79.1834 31.1764C78.2331 27.0876 76.578 23.0339 74.3933 19.4501C72.0824 15.6558 69.0526 12.1667 65.6336 9.3578C62.2146 6.54894 58.2064 4.24854 54.0405 2.71261C50.1024 1.26084 45.8067 0.419246 41.6197 0.278978C37.4328 0.12819 33.0915 0.671724 29.0623 1.84647C24.7981 3.09134 20.6392 5.10418 17.0343 7.67108L17.0273 7.66757Z" fill="#D43D25"/>
<path d="M17.3394 36.9204C17.6761 34.5218 18.3213 32.1548 19.0262 30.7486C20.8777 26.467 24.3563 22.5991 28.5573 20.1584C32.7584 17.7178 37.8396 16.6132 42.4964 17.1286C47.1568 17.5284 51.9259 19.6009 55.5729 22.813C59.2199 26.0251 61.8779 30.4926 62.8668 35.0724C63.0772 35.8684 63.2666 37.2711 63.3613 38.8105C63.4454 40.1711 63.4524 41.5387 63.4489 42.5802L63.4489 54.2295L70.799 54.2295L70.799 43.8041C70.799 42.5381 70.8025 40.627 70.6973 38.7088C70.578 36.5242 70.3326 34.5779 70.045 33.5049C69.3472 30.4155 68.183 27.4769 66.5804 24.7557C64.9147 21.9258 62.7301 19.2958 60.2578 17.1532C57.7856 15.0106 54.8751 13.2152 51.8383 11.9668C48.9172 10.764 45.8418 10.0276 42.7033 9.7751C39.5613 9.5156 36.4088 9.74705 33.33 10.4589C30.1319 11.1988 26.9688 12.4998 24.181 14.2146C21.3967 15.9293 18.8123 18.1701 16.7117 20.6949C14.6919 23.1216 13.0648 25.8357 11.883 28.7568C11.4868 29.7457 11.0309 30.9695 10.6732 32.5195C10.5014 33.2664 10.3576 34.0484 10.2349 34.9111C10.1192 35.7386 10.0069 36.7381 9.91927 37.7971C9.64224 41.0513 9.64575 43.6568 9.64224 45.9537C9.64224 46.3815 9.64224 46.7953 9.64224 47.195L9.64223 54.2295L16.9923 54.2295L16.9923 43.3727C16.9572 41.0092 17.0764 38.779 17.3359 36.9239L17.3394 36.9204Z" fill="#E15711"/>
</svg>
