<svg width="410" height="80" viewBox="0 0 410 80" fill="none" xmlns="http://www.w3.org/2000/svg">
<g clip-path="url(#clip0_1_20)">
<path d="M131.465 15.4779C131.465 11.596 134.281 8.78009 138.163 8.78009C142.045 8.78009 144.86 11.596 144.86 15.4779C144.86 19.3598 142.045 22.1757 138.163 22.1757C134.281 22.1757 131.465 19.3598 131.465 15.4779ZM132.987 25.2335H143.258V62.8217H132.987V25.2335Z" fill="#FFF8E9"/>
<path d="M150.485 44.4817C150.485 32.3836 158.856 24.2411 170.803 24.2411C182.75 24.2411 190.816 32.1557 190.816 44.4046V62.8182H181.379V56.0468C179.247 61.1455 174.608 63.8071 168.899 63.8071C160.223 63.8071 150.485 57.4144 150.485 44.4782M180.545 44.0259C180.545 38.0154 176.589 33.8284 170.729 33.8284C164.87 33.8284 160.914 38.0119 160.914 44.0223C160.914 50.0328 164.87 54.2198 170.729 54.2198C176.589 54.2198 180.545 50.0363 180.545 44.0223" fill="#FFF8E9"/>
<path d="M198.274 44.4046C198.274 31.9243 206.645 24.2411 218.287 24.2411C229.929 24.2411 238.605 32.3836 238.605 44.4817C238.605 57.4179 228.94 63.8106 220.114 63.8106C215.17 63.8106 211.06 61.8328 208.549 58.0281V79.2295H198.278V44.4081L198.274 44.4046ZM228.179 44.0259C228.179 38.0154 224.224 33.8284 218.364 33.8284C212.505 33.8284 208.549 38.0119 208.549 44.0259C208.549 50.0398 212.505 54.2233 218.364 54.2233C224.224 54.2233 228.179 50.0398 228.179 44.0259Z" fill="#FFF8E9"/>
<path d="M243.016 44.4817C243.016 32.3836 251.387 24.2411 263.334 24.2411C275.281 24.2411 283.347 32.1557 283.347 44.4046V62.8182H273.91V56.0468C271.778 61.1455 267.139 63.8071 261.43 63.8071C252.754 63.8071 243.016 57.4144 243.016 44.4782M273.072 44.0259C273.072 38.0154 269.117 33.8284 263.257 33.8284C257.397 33.8284 253.442 38.0119 253.442 44.0259C253.442 50.0398 257.397 54.2233 263.257 54.2233C269.117 54.2233 273.072 50.0398 273.072 44.0259Z" fill="#FFF8E9"/>
<path d="M289.28 51.5583H299.551C299.628 53.764 301.452 55.1351 305.183 55.1351C309.216 55.1351 310.815 53.536 310.815 51.6354C310.815 48.9703 307.771 48.6687 303.966 48.1357C298.489 47.3748 289.964 46.2351 289.964 37.1037C289.964 29.417 295.901 24.2446 305.183 24.2446C314.465 24.2446 320.174 29.5713 320.402 36.2656H310.282C310.054 34.2107 308.227 32.9167 305.337 32.9167C301.911 32.9167 300.393 34.5894 300.393 36.4935C300.393 39.0043 303.437 39.3865 307.241 39.916C312.417 40.677 321.166 41.8938 321.166 51.0252C321.166 58.7119 314.928 63.8106 305.264 63.8106C295.599 63.8106 289.512 58.6348 289.284 51.5583" fill="#FFF8E9"/>
<path d="M327.1 44.4116C327.1 32.9973 335.47 24.6268 347.34 24.6268C359.211 24.6268 367.581 32.9973 367.581 44.4116C367.581 55.8259 359.211 64.1964 347.34 64.1964C335.47 64.1964 327.1 55.8259 327.1 44.4116ZM357.156 44.4116C357.156 38.4011 353.2 34.2141 347.34 34.2141C341.481 34.2141 337.525 38.3976 337.525 44.4116C337.525 50.4256 341.481 54.6091 347.34 54.6091C353.2 54.6091 357.156 50.4256 357.156 44.4116Z" fill="#FFF8E9"/>
<path d="M372.073 43.342C372.073 30.7109 379.532 24.2411 390.641 24.2411C401.75 24.2411 409.209 30.6338 409.209 43.342V62.8217H398.938V43.342C398.938 36.7986 395.589 33.8319 390.645 33.8319C385.7 33.8319 382.351 36.7986 382.351 43.342V62.8217H372.08V43.342H372.073Z" fill="#FFF8E9"/>
<path fill-rule="evenodd" clip-rule="evenodd" d="M104.778 63.8028C104.569 63.808 104.359 63.8107 104.148 63.8107C92.2776 63.8107 83.9071 55.4402 83.9071 44.0259C83.9071 32.6116 92.2776 24.2411 104.148 24.2411C107.829 24.2411 111.174 25.0462 114.037 26.4975V8.79413H124.311V42.1468C124.362 42.7631 124.388 43.3898 124.388 44.0259C124.388 47.2816 123.707 50.2896 122.458 52.9264C119.432 59.6889 112.939 63.6536 104.778 63.8028ZM104.191 54.2233C110.027 54.2028 113.963 50.0251 113.963 44.0259C113.963 38.026 110.021 33.8431 104.179 33.8285C98.3424 33.8488 94.4062 38.0266 94.4062 44.0259C94.4062 50.0294 98.348 54.2088 104.191 54.2233Z" fill="#FFF8E9"/>
<path d="M28.0525 25.756C29.1641 25.749 30.423 25.7385 31.7942 25.7771C33.1793 25.8156 34.2313 25.8928 35.0098 26.012C35.9531 26.1558 36.6299 26.3837 37.3593 26.6467C39.9823 27.5971 42.4896 29.6169 44.0676 32.0435C45.6456 34.4702 46.4697 37.5806 46.2768 40.3649C46.1541 43.1422 44.9793 46.1404 43.1348 48.3707C41.2903 50.601 38.5691 52.3192 35.8549 52.968C35.0484 53.217 33.6527 53.3186 32.6323 53.3572C31.7556 53.3888 30.8754 53.3888 30.1706 53.3853C29.8795 53.3853 29.6165 53.3853 29.3991 53.3853H18.5038V60.7353H28.7223C28.838 60.7353 28.9678 60.7353 29.1115 60.7353C29.3009 60.7353 29.5078 60.7353 29.7287 60.7353C30.4792 60.7353 31.4154 60.7388 32.3377 60.7213C33.9718 60.6897 35.1922 60.6021 35.8619 60.4653C38.1202 60.1006 40.3715 59.3467 42.3844 58.2806C44.5235 57.148 46.5118 55.6085 48.1318 53.8271C49.7554 52.0457 51.102 49.9242 52.0313 47.6904C52.908 45.5864 53.448 43.2755 53.6023 41.0066C53.7566 38.7378 53.5322 36.3743 52.95 34.1721C52.3294 31.8331 51.2809 29.5468 49.9132 27.5655C48.5456 25.5807 46.7853 23.7853 44.818 22.3756C42.9665 21.0465 40.8379 19.9945 38.6638 19.3353C37.9379 19.1214 37.3663 18.9566 36.5247 18.8198C35.7497 18.6971 34.6732 18.5884 33.4879 18.5182C31.7556 18.413 30.2232 18.413 28.9923 18.4165C28.7188 18.4165 28.4628 18.4165 28.2208 18.4165H0.0340424V25.7666H26.208C26.7621 25.7736 27.3827 25.7666 28.063 25.7666L28.0525 25.756Z" fill="#F08324"/>
<path d="M36.8824 39.5794C36.9104 40.6454 36.4055 41.8693 35.5954 42.6793C34.7854 43.4894 33.5615 43.9873 32.478 43.9663H18.5038V51.3163H29.2834C29.4903 51.3163 29.7287 51.3163 29.9917 51.3163C30.8614 51.3198 31.9414 51.3198 33.0145 51.2497C34.5329 51.148 35.8023 50.9165 36.4931 50.615C38.6673 49.847 40.6871 48.3111 42.0547 46.3859C43.4259 44.4642 44.2184 42.0516 44.2324 39.7723C44.2955 37.4859 43.5837 35.0488 42.2792 33.0815C40.9747 31.1142 39.0109 29.5082 36.8859 28.6771C36.2091 28.4141 35.5744 28.1862 34.6696 28.0459C33.9227 27.9302 32.9268 27.86 31.5417 27.8285C30.2477 27.7969 29.0344 27.8074 27.9613 27.818C27.2074 27.825 26.5166 27.832 25.9029 27.8215H0.0235138V35.1715H32.478C33.558 35.1399 34.7819 35.6484 35.5919 36.4584C36.4019 37.2685 36.9069 38.4923 36.8789 39.5759L36.8824 39.5794Z" fill="#F9B32C"/>
<path d="M65.0657 16.3756C62.4988 12.7707 59.227 9.5095 55.6046 6.93559C52.1821 4.50896 48.2546 2.57326 44.2499 1.34592C43.0892 0.991746 41.7777 0.627049 40.084 0.3395C39.2634 0.202739 38.3938 0.090524 37.4329 -0.00415675C36.5317 -0.0918241 35.4481 -0.16897 34.2208 -0.235597C30.7597 -0.424959 28.0385 -0.424958 25.6399 -0.421451C25.0753 -0.421451 24.5388 -0.421451 24.0233 -0.421451H0.0305328V6.92858H28.8661C30.6755 6.90754 33.4072 6.94261 36.0969 7.23366C38.8637 7.53173 41.5638 8.10332 43.1453 8.71699C46.3434 9.81809 49.4749 11.4873 52.1856 13.5422C55.0541 15.7128 57.621 18.4375 59.6163 21.4147C61.6116 24.3919 63.1475 27.8074 64.0627 31.2861C64.9289 34.5753 65.2796 38.1066 65.0762 41.4976C64.8798 44.8885 64.1154 48.3531 62.8705 51.5197C61.552 54.8686 59.6233 58.0772 57.2948 60.7984C54.9664 63.5231 52.0944 65.9252 48.991 67.7452C46.0559 69.4669 42.7526 70.7574 39.4317 71.4763C38.4148 71.7288 36.6439 71.9672 34.8204 72.0935C32.9303 72.2267 31.0928 72.2302 30.1671 72.2232H18.5038V79.5732H30.0373C30.7246 79.5838 33.1828 79.5943 35.8549 79.3769C38.0396 79.198 40.2769 78.8649 41.5568 78.5318C45.6456 77.5814 49.6993 75.9263 53.2832 73.7416C57.0774 71.4307 60.5666 68.4009 63.3754 64.9819C66.1843 61.5629 68.4847 57.5547 70.0206 53.3888C71.4724 49.4507 72.314 45.155 72.4543 40.968C72.6051 36.7811 72.0615 32.4398 70.8868 28.4106C69.6419 24.1464 67.6291 19.9875 65.0622 16.3826L65.0657 16.3756Z" fill="#D43D25"/>
<path d="M35.8128 16.6877C38.2114 17.0244 40.5784 17.6696 41.9846 18.3744C46.2663 20.226 50.1342 23.7046 52.5748 27.9056C55.0155 32.1067 56.1201 37.1879 55.6046 41.8447C55.2048 46.5051 53.1324 51.2742 49.9203 54.9212C46.7081 58.5682 42.2406 61.2262 37.6608 62.2151C36.8648 62.4255 35.4622 62.6149 33.9227 62.7096C32.5621 62.7937 31.1945 62.8007 30.153 62.7972H18.5038V70.1473H28.9292C30.1951 70.1473 32.1062 70.1508 34.0244 70.0456C36.2091 69.9263 38.1553 69.6809 39.2283 69.3933C42.3177 68.6955 45.2563 67.5313 47.9775 65.9287C50.8074 64.263 53.4375 62.0784 55.58 59.6061C57.7226 57.1339 59.5181 54.2234 60.7664 51.1866C61.9692 48.2655 62.7057 45.1901 62.9581 42.0516C63.2176 38.9096 62.9862 35.7571 62.2743 32.6783C61.5344 29.4801 60.2334 26.3171 58.5187 23.5293C56.8039 20.745 54.5631 18.1605 52.0383 16.06C49.6117 14.0402 46.8975 12.4131 43.9764 11.2313C42.9875 10.8351 41.7637 10.3792 40.2137 10.0215C39.4668 9.84968 38.6848 9.70591 37.8222 9.58317C36.9946 9.46745 35.9952 9.35524 34.9361 9.26757C31.6819 8.99054 29.0765 8.99405 26.7796 8.99054C26.3518 8.99054 25.938 8.99054 25.5382 8.99054H0.0200043V16.3406H29.3605C31.724 16.3055 33.9543 16.4247 35.8093 16.6842L35.8128 16.6877Z" fill="#E15711"/>
</g>
<defs>
<clipPath id="clip0_1_20">
<rect width="410" height="80" fill="white"/>
</clipPath>
</defs>
</svg>
